Coordinates
version=1
nRows=20
nColumns=38
inDegrees=no

Units are S.I. units (second, meters, Newtons, ...)
If the header above contains a line with 'inDegrees', this indicates whether rotational values are in degrees (yes) or radians (no).

endheader
time	pelvis_tilt	pelvis_list	pelvis_rotation	pelvis_tx	pelvis_ty	pelvis_tz	hip_flexion_r	hip_adduction_r	hip_rotation_r	knee_angle_r	ankle_angle_r	subtalar_angle_r	mtp_angle_r	hip_flexion_l	hip_adduction_l	hip_rotation_l	knee_angle_l	ankle_angle_l	subtalar_angle_l	mtp_angle_l	lumbar_extension	lumbar_bending	lumbar_rotation	arm_flex_r	arm_add_r	arm_rot_r	elbow_flex_r	pro_sup_r	wrist_flex_r	wrist_dev_r	arm_flex_l	arm_add_l	arm_rot_l	elbow_flex_l	pro_sup_l	wrist_flex_l	wrist_dev_l
10	-0.280028	1.51579	1.95822	0.838821	-0.346975	1.05192	0.0545217	-0.0470339	-0.0908272	0.452341	-0.196658	0	0	0.234976	-0.0718477	-0.123951	0.257611	-0.141659	0	0	-0.236478	-0.0878646	0.248522	0.521949	-0.525853	0.328044	1.5115	1.5708	0	0	0.868843	-0.251272	0.758071	1.10079	1.5708	0	0
10.01	-0.284075	1.5144	1.96581	0.841213	-0.352234	1.05243	0.057308	-0.0450977	-0.0946776	0.443992	-0.200414	0	0	0.243508	-0.0727057	-0.1239	0.262652	-0.13815	0	0	-0.239526	-0.0875529	0.246237	0.527183	-0.525721	0.331865	1.51222	1.5708	0	0	0.871676	-0.252236	0.75569	1.09924	1.5708	0	0
10.02	-0.288447	1.51272	1.97414	0.843426	-0.35738	1.05297	0.0599789	-0.0432773	-0.0980918	0.435089	-0.204423	0	0	0.252908	-0.073304	-0.123292	0.269034	-0.135396	0	0	-0.24219	-0.0873309	0.243512	0.531779	-0.52551	0.335245	1.51317	1.5708	0	0	0.874257	-0.253231	0.753567	1.09792	1.5708	0	0
10.03	-0.293969	1.51058	1.98382	0.84547	-0.362434	1.05353	0.0627816	-0.0417418	-0.100972	0.425711	-0.208782	0	0	0.263003	-0.0734022	-0.121864	0.2762	-0.133084	0	0	-0.24451	-0.0872109	0.240547	0.535892	-0.525261	0.338136	1.51445	1.5708	0	0	0.876584	-0.254254	0.751471	1.09693	1.5708	0	0
10.04	-0.302427	1.5086	1.99654	0.847373	-0.367387	1.05414	0.0648817	-0.0403112	-0.103353	0.415658	-0.213494	0	0	0.272832	-0.0732762	-0.1202	0.283805	-0.131096	0	0	-0.246963	-0.087182	0.237437	0.53975	-0.524962	0.340777	1.51551	1.5708	0	0	0.878852	-0.255141	0.749552	1.0958	1.5708	0	0
10.05	-0.314755	1.50714	2.01322	0.849159	-0.372228	1.05484	0.0658423	-0.0388424	-0.105348	0.405142	-0.218058	0	0	0.281931	-0.073189	-0.118159	0.292184	-0.130049	0	0	-0.24988	-0.0874382	0.234371	0.543193	-0.524693	0.342907	1.51639	1.5708	0	0	0.881483	-0.255789	0.748324	1.09444	1.5708	0	0
10.06	-0.329509	1.50605	2.03227	0.850867	-0.376929	1.05559	0.0656529	-0.0371559	-0.106933	0.393924	-0.222252	0	0	0.290466	-0.0732812	-0.116045	0.30186	-0.131062	0	0	-0.253064	-0.0878562	0.231314	0.546447	-0.524406	0.344907	1.51711	1.5708	0	0	0.88417	-0.256459	0.74755	1.09307	1.5708	0	0
10.07	-0.346488	1.50526	2.05339	0.852506	-0.381501	1.05639	0.0644878	-0.0353618	-0.108133	0.381741	-0.226669	0	0	0.298404	-0.0735045	-0.113804	0.313266	-0.134408	0	0	-0.256478	-0.0883735	0.228427	0.549395	-0.524177	0.346704	1.51796	1.5708	0	0	0.886944	-0.257145	0.747393	1.09173	1.5708	0	0
10.08	-0.367308	1.5047	2.07814	0.854082	-0.385945	1.05724	0.0624924	-0.0337814	-0.108369	0.367918	-0.232739	0	0	0.305628	-0.0737974	-0.111679	0.326728	-0.139813	0	0	-0.260094	-0.0889628	0.225447	0.552336	-0.523662	0.348536	1.51869	1.5708	0	0	0.889582	-0.258171	0.747448	1.09073	1.5708	0	0
10.09	-0.393634	1.50443	2.10803	0.85563	-0.390256	1.05814	0.0595606	-0.0324112	-0.108358	0.3538	-0.23831	0	0	0.311134	-0.0738701	-0.108789	0.340152	-0.145703	0	0	-0.263961	-0.0898105	0.222731	0.555203	-0.523045	0.350315	1.51917	1.5708	0	0	0.892154	-0.259218	0.747643	1.08971	1.5708	0	0
10.1	-0.427243	1.50456	2.14491	0.857162	-0.394414	1.0591	0.0550712	-0.0312406	-0.108942	0.338711	-0.243454	0	0	0.31488	-0.0737977	-0.105709	0.353947	-0.150473	0	0	-0.268201	-0.0909684	0.220224	0.557978	-0.522332	0.352166	1.51938	1.5708	0	0	0.89468	-0.260333	0.748046	1.08863	1.5708	0	0
10.11	-0.467608	1.50492	2.18837	0.858649	-0.398445	1.06007	0.0496529	-0.0305491	-0.110018	0.323211	-0.248582	0	0	0.317186	-0.0735529	-0.102286	0.368316	-0.153678	0	0	-0.272633	-0.0924341	0.217897	0.560422	-0.521529	0.353806	1.51945	1.5708	0	0	0.897256	-0.261423	0.748828	1.08736	1.5708	0	0
10.12	-0.514215	1.50554	2.23788	0.860078	-0.402338	1.06101	0.0429958	-0.0300167	-0.11136	0.306561	-0.255473	0	0	0.318332	-0.0733355	-0.0988474	0.38414	-0.155323	0	0	-0.277423	-0.0938367	0.215204	0.563338	-0.520517	0.356188	1.51925	1.5708	0	0	0.899413	-0.263221	0.749421	1.08689	1.5708	0	0
10.13	-0.554893	1.50513	2.28103	0.861471	-0.406088	1.0618	0.0382324	-0.0300706	-0.112516	0.292054	-0.259158	0	0	0.319114	-0.0727605	-0.09441	0.39854	-0.157609	0	0	-0.280725	-0.0956013	0.212961	0.565327	-0.519402	0.358157	1.51918	1.5708	0	0	0.900949	-0.264985	0.749956	1.0864	1.5708	0	0
10.14	-0.603955	1.50582	2.33258	0.862797	-0.409705	1.06266	0.0309962	-0.0296257	-0.113977	0.274952	-0.266026	0	0	0.3179	-0.0728665	-0.0907662	0.413641	-0.158476	0	0	-0.285267	-0.096817	0.210623	0.567693	-0.518612	0.360628	1.51926	1.5708	0	0	0.902385	-0.266936	0.750285	1.08641	1.5708	0	0
10.15	-0.642748	1.50532	2.37385	0.864016	-0.413201	1.06333	0.0261343	-0.0298881	-0.116274	0.261044	-0.269719	0	0	0.316671	-0.0724026	-0.0855388	0.426831	-0.159284	0	0	-0.288176	-0.098162	0.208459	0.568913	-0.517787	0.362319	1.51978	1.5708	0	0	0.903012	-0.268642	0.750239	1.08664	1.5708	0	0
10.16	-0.680833	1.5049	2.41414	0.865182	-0.416579	1.06393	0.0213148	-0.0301921	-0.11871	0.247428	-0.274132	0	0	0.314392	-0.0721719	-0.0804168	0.439766	-0.159262	0	0	-0.290872	-0.0993503	0.206527	0.569982	-0.517004	0.363941	1.52022	1.5708	0	0	0.903331	-0.270305	0.750115	1.08693	1.5708	0	0
10.17	-0.722288	1.50494	2.45745	0.866296	-0.419838	1.06451	0.0159402	-0.0303285	-0.121163	0.234042	-0.278652	0	0	0.310569	-0.0722925	-0.0754086	0.452441	-0.158824	0	0	-0.293711	-0.100426	0.205297	0.570596	-0.516607	0.365221	1.52062	1.5708	0	0	0.903902	-0.271399	0.750583	1.08638	1.5708	0	0
10.18	-0.760263	1.50493	2.49713	0.867323	-0.422954	1.065	0.0109523	-0.0304375	-0.123656	0.221351	-0.282859	0	0	0.306171	-0.0726218	-0.0709677	0.465259	-0.158187	0	0	-0.295913	-0.101322	0.204431	0.570579	-0.516425	0.366234	1.52104	1.5708	0	0	0.904341	-0.272163	0.751529	1.08551	1.5708	0	0
10.19	-0.790961	1.50463	2.52956	0.868205	-0.42597	1.06536	0.00733339	-0.030796	-0.126099	0.210019	-0.287093	0	0	0.301558	-0.072916	-0.0665764	0.477897	-0.157444	0	0	-0.297443	-0.101761	0.203535	0.570145	-0.516404	0.367039	1.52183	1.5708	0	0	0.904032	-0.272883	0.752057	1.08523	1.5708	0	0
